<svg xmlns="http://www.w3.org/2000/svg" width="480" height="80" viewBox="0 0 480 80">
  <defs>
    <style>
      @keyframes trace-fast {
        0% { stroke-dashoffset: 1000; }
        100% { stroke-dashoffset: 0; }
      }
      @keyframes pulse {
        0%, 100% { opacity: 0.6; }
        50% { opacity: 1; }
      }
      @keyframes fade {
        0%, 100% { opacity: 0.4; }
        50% { opacity: 0.7; }
      }
      .bg { fill: #1a1c20; }
      .ecg {
        fill: none;
        stroke: #eab308;
        stroke-width: 2;
        stroke-linecap: round;
        stroke-linejoin: round;
        /* no filter - avoids render glitch */
        stroke-dasharray: 1000;
        animation: trace-fast 2.5s linear infinite;
      }
      .repo { fill: #e2e8f0; font-family: ui-monospace, 'SF Mono', Consolas, monospace; font-size: 12px; }
      .repo-dim { fill: #64748b; }
      .score { fill: #eab308; font-family: ui-monospace, 'SF Mono', Consolas, monospace; font-size: 20px; font-weight: bold; }
      .score-unit { fill: #94a3b8; font-family: ui-monospace, 'SF Mono', Consolas, monospace; font-size: 11px; }
      .status { fill: #eab308; font-family: system-ui, -apple-system, 'Segoe UI', sans-serif; font-size: 10px; text-transform: uppercase; letter-spacing: 1px;  }
      .dot { fill: #eab308; animation: pulse 0.7s ease-in-out infinite; }
      .border { fill: none; stroke: #2e3238; stroke-width: 1; rx: 6; }
    </style>
  </defs>

  <rect class="bg" width="480" height="80" rx="6"/>
  
  <rect class="border" x="0.5" y="0.5" width="479" height="79"/>

  <path class="ecg" d="M 15,40 L 15,39.9 L 16.35,40.02 L 17.7,39.58 L 19.06,39.43 L 20.41,38.06 L 21.76,38.33 L 23.11,38.41 L 24.46,39.36 L 25.82,40.26 L 27.17,36.43 L 28.52,18.02 L 29.87,37.94 L 31.22,40.41 L 32.58,39.73 L 33.93,38.71 L 35.28,36.67 L 36.63,35.04 L 37.99,34.51 L 39.34,36.26 L 40.69,39.06 L 42.04,39.65 L 43.39,39.94 L 44.75,40.3 L 46.1,39.63 L 47.45,40.22 L 48.8,40 L 50.15,39.66 L 51.51,40.19 L 52.86,40.35 L 54.21,40.3 L 55.56,39.97 L 56.91,39.66 L 58.27,40.37 L 59.62,39.67 L 60.97,39.87 L 62.32,40.36 L 63.67,39.95 L 65.03,39.69 L 66.38,39.63 L 67.73,39.91 L 77.2,39.95 L 85.31,39.94 L 85.31,39.73 L 86.67,40.14 L 88.04,39.84 L 89.4,39.26 L 90.77,38.28 L 92.13,38.15 L 93.5,38.79 L 94.86,39.74 L 96.22,40.23 L 97.59,36.14 L 98.95,17.81 L 100.32,37.55 L 101.68,40.67 L 103.05,39.76 L 104.41,38.13 L 105.78,36.72 L 107.14,35.01 L 108.51,34.65 L 109.87,36.41 L 111.24,39.04 L 112.6,40.1 L 113.96,40.24 L 115.33,40 L 116.69,40.11 L 118.06,39.78 L 119.42,40 L 120.79,39.88 L 122.15,40.13 L 123.52,39.97 L 124.88,40.12 L 126.25,40.18 L 127.61,40.16 L 128.98,39.74 L 130.34,40.07 L 131.7,39.71 L 133.07,40.02 L 134.43,40.35 L 135.8,40.26 L 137.16,39.74 L 138.53,39.91 L 148.08,39.86 L 156.27,40.02 L 156.27,40.06 L 157.51,39.73 L 158.74,39.66 L 159.98,38.88 L 161.22,38.63 L 162.46,37.83 L 163.69,38.69 L 164.93,39.24 L 166.17,40.15 L 167.41,36.52 L 168.65,17.53 L 169.88,37.46 L 171.12,40.51 L 172.36,39.08 L 173.6,38.5 L 174.84,36.96 L 176.07,35.3 L 177.31,34.69 L 178.55,36.12 L 179.79,38.85 L 181.03,39.65 L 182.26,39.69 L 183.5,40.24 L 184.74,40 L 185.98,40.1 L 187.22,39.89 L 188.45,39.81 L 189.69,40.24 L 190.93,39.95 L 192.17,39.87 L 193.41,39.65 L 194.64,39.87 L 195.88,39.69 L 197.12,39.72 L 198.36,39.89 L 199.6,39.98 L 200.83,39.76 L 202.07,40.37 L 203.31,40.09 L 204.55,39.92 L 213.21,40.13 L 220.64,40.05 L 220.64,40.27 L 222.05,40.21 L 223.46,40.03 L 224.87,39.22 L 226.28,38.22 L 227.69,38.22 L 229.1,38.75 L 230.51,39.52 L 231.92,39.73 L 233.33,36.27 L 234.75,17.54 L 236.16,37.32 L 237.57,40.53 L 238.98,39.35 L 240.39,38 L 241.8,36.77 L 243.21,34.74 L 244.62,34.19 L 246.03,36.11 L 247.44,38.79 L 248.85,39.79 L 250.26,40.33 L 251.67,39.8 L 253.08,39.95 L 254.49,39.93 L 255.9,39.91 L 257.31,40.21 L 258.72,40.32 L 260.13,39.74 L 261.54,40.26 L 262.95,39.75 L 264.36,40.31 L 265.77,40.24 L 267.18,40.34 L 268.6,39.7 L 270.01,40.16 L 271.42,40.1 L 272.83,40.15 L 274.24,40.26 L 275.65,40.06 L 285.52,40.07 L 293.98,40.12 L 293.98,40.04 L 295.37,39.83 L 296.75,39.53 L 298.13,39.42 L 299.52,38.39 L 300.9,38.15 L 302.28,38.85 L 303.67,39.42 L 305.05,40.21 L 306.43,36.49 L 307.82,17.91 L 309.2,37.66 L 310.58,40.75 L 311.97,39.37 L 313.35,38.61 L 314.73,37.02 L 316.12,34.86 L 317.5,34.49 L 318.88,36.54 L 320.27,39.09 L 321.65,39.98 L 323.03,40.23 L 324.42,40.33 L 325.8,39.72 L 327.18,40.34 L 328.57,40.08 L 329.95,39.85 L 331.33,40.08 L 332.72,39.91 L 334.1,40.13 L 335.48,40.31 L 336.87,39.95 L 338.25,40.15 L 339.63,40.24 L 341.02,40.02 L 342.4,39.94 L 343.78,39.72 L 345.17,39.93 L 346.55,39.8 L 347.94,39.99 L 357.62,39.8 L 365.92,39.96 L 365.92,39.86 L 367.28,39.9 L 368.65,39.45 L 370.01,39.17 L 371.38,38.1 L 372.74,37.79 L 374.11,38.62 L 375.47,39.18 L 376.84,40.07 L 378.2,36.47 L 379.57,18.09 L 380.93,37.55 L 382.3,40.74 L 383.66,39.62 L 385,40"/>

  <text class="repo" x="15" y="68">
    <tspan class="repo-dim">vercel/</tspan>next.js
  </text>

  <circle class="dot" cx="410" cy="28" r="3"/>
  <text class="status" x="418" y="32">stressed</text>

  <text class="score" x="410" y="58">68</text>
  <text class="score-unit" x="438" y="58">/100</text>
</svg>