<svg xmlns="http://www.w3.org/2000/svg" width="800" height="220" viewBox="0 0 800 220">
  <defs>
    <style>
      @keyframes trace-fast {
        0% { stroke-dashoffset: 2400; }
        100% { stroke-dashoffset: 0; }
      }
      @keyframes blink {
        0%, 100% { opacity: 1; }
        50% { opacity: 0.3; }
      }
      @keyframes pulse-glow {
        0%, 100% { opacity: 0.5; }
        50% { opacity: 1; }
      }
      @keyframes fade-slow {
        0%, 100% { opacity: 0.4; }
        50% { opacity: 0.7; }
      }
      .bg { fill: #1a1c20; }
      .ecg-line {
        fill: none;
        stroke: #eab308;
        stroke-width: 2.5;
        stroke-linecap: round;
        stroke-linejoin: round;
        /* no filter - avoids render glitch */
        stroke-dasharray: 2400;
        animation: trace-fast 2.5s linear infinite;
      }
      .grid-line { stroke: #262a30; stroke-width: 0.5; }
      .label { fill: #94a3b8; font-family: system-ui, -apple-system, 'Segoe UI', sans-serif; font-size: 10px; text-transform: uppercase; letter-spacing: 0.5px; }
      .val { fill: #e2e8f0; font-family: ui-monospace, 'SF Mono', Consolas, monospace; font-size: 15px; font-weight: bold; }
      .val-unit { fill: #64748b; font-family: ui-monospace, 'SF Mono', Consolas, monospace; font-size: 10px; }
      .val-ci { fill: #6b7280; font-family: ui-monospace, 'SF Mono', Consolas, monospace; font-size: 15px; font-weight: bold;  }
      .val-pr { fill: #4ade80; font-family: ui-monospace, 'SF Mono', Consolas, monospace; font-size: 15px; font-weight: bold; }
      .val-rel { fill: #f59e0b; font-family: ui-monospace, 'SF Mono', Consolas, monospace; font-size: 15px; font-weight: bold; }
      .val-resp { fill: #f59e0b; font-family: ui-monospace, 'SF Mono', Consolas, monospace; font-size: 15px; font-weight: bold; }
      .repo-name { fill: #e2e8f0; font-family: ui-monospace, 'SF Mono', Consolas, monospace; font-size: 14px; font-weight: bold; }
      .status-text { fill: #eab308; font-family: system-ui, -apple-system, 'Segoe UI', sans-serif; font-size: 12px; font-weight: bold;  }
      .status-dot { fill: #eab308; animation: blink 0.8s ease-in-out infinite; }
      .divider { stroke: #2e3238; stroke-width: 1; }
      .bar-bg { fill: #262a30; rx: 3; }
      .bar-fill { fill: #eab308; rx: 3; opacity: 0.85; }
      .border { fill: none; stroke: #2e3238; stroke-width: 1; rx: 8; }
      .heart { fill: #eab308; animation: pulse-glow 0.6s ease-in-out infinite; font-size: 18px; }
      .bpm { fill: #eab308; font-family: ui-monospace, 'SF Mono', Consolas, monospace; font-size: 22px; font-weight: bold; }
      .bpm-unit { fill: #eab30899; font-family: ui-monospace, 'SF Mono', Consolas, monospace; font-size: 10px; }

      /* Adapt to GitHub light/dark mode */
        .grid-line { stroke: #e2e8f0; }
        .label { fill: #64748b; }
        .val { fill: #1e293b; }
        .val-unit { fill: #94a3b8; }
        .repo-name { fill: #1e293b; }
        .divider { stroke: #e2e8f0; }
        .bar-bg { fill: #f1f5f9; }
        .border { stroke: #e2e8f0; }
        .bpm-unit { fill: #eab30899; }
      }
    </style>
  </defs>

  <rect class="bg" width="800" height="220" rx="8"/>
  
  <rect class="border" x="0.5" y="0.5" width="799" height="219"/>

  <g opacity="0.3">
    <line class="grid-line" x1="0" y1="44" x2="555" y2="44"/>
    <line class="grid-line" x1="0" y1="88" x2="555" y2="88"/>
    <line class="grid-line" x1="0" y1="132" x2="555" y2="132"/>
    <line class="grid-line" x1="0" y1="176" x2="555" y2="176"/>
  </g>

  <path class="ecg-line" d="M 0,110 L 0,107.23 L 1.24,109.91 L 2.48,113.01 L 3.72,110.85 L 4.95,105.85 L 6.19,109.64 L 7.43,111.32 L 8.67,109.89 L 9.91,107.46 L 11.15,110.5 L 12.39,69.23 L 13.62,93.11 L 14.86,110.41 L 16.1,102.72 L 17.34,99.62 L 18.58,97.46 L 19.82,96.27 L 21.05,95.09 L 22.29,98.2 L 23.53,103.8 L 24.77,108.69 L 26.01,109.27 L 27.25,110.06 L 28.49,110.06 L 29.72,110.11 L 30.96,110.41 L 32.2,110.57 L 33.44,110.43 L 34.68,109.82 L 35.92,110.51 L 37.16,110.41 L 38.39,110.68 L 39.63,109.47 L 40.87,110.48 L 42.11,109.53 L 43.35,109.57 L 44.59,110.66 L 45.83,110.01 L 47.06,109.69 L 48.3,110.29 L 49.54,110.17 L 58.4,109.9 L 66.01,110.25 L 66.01,108.47 L 67.57,111.62 L 69.12,107.9 L 70.67,110.86 L 72.23,111.88 L 73.78,111.36 L 75.33,111.22 L 76.89,110.88 L 78.44,108.67 L 79.99,109.74 L 81.55,69.01 L 83.1,92.12 L 84.65,110.04 L 86.21,102.94 L 87.76,100.23 L 89.32,96.94 L 90.87,96.35 L 92.42,96.15 L 93.98,99.01 L 95.53,104.72 L 97.08,108.95 L 98.64,109.72 L 100.19,109.68 L 101.74,109.63 L 103.3,109.6 L 104.85,110.3 L 106.4,110.65 L 107.96,109.95 L 109.51,109.82 L 111.06,109.85 L 112.62,110.37 L 114.17,109.41 L 115.72,109.64 L 117.28,110.34 L 118.83,109.58 L 120.38,109.48 L 121.94,109.72 L 123.49,109.33 L 125.04,109.54 L 126.6,109.36 L 128.15,109.75 L 139.26,109.59 L 148.81,110.25 L 148.81,109.36 L 149.96,108.04 L 151.11,109.52 L 152.26,107.58 L 153.41,108.44 L 154.55,110.25 L 155.7,111.64 L 156.85,108.99 L 158,111.21 L 159.15,109.86 L 160.29,69.23 L 161.44,93.26 L 162.59,110.12 L 163.74,102.47 L 164.89,99.92 L 166.04,98.09 L 167.18,96.71 L 168.33,94.83 L 169.48,98.15 L 170.63,103.78 L 171.78,109.14 L 172.92,109.28 L 174.07,109.65 L 175.22,110.36 L 176.37,110.42 L 177.52,110.57 L 178.67,110.55 L 179.81,110.69 L 180.96,110.4 L 182.11,109.45 L 183.26,109.99 L 184.41,110.65 L 185.55,109.84 L 186.7,110.28 L 187.85,110.04 L 189,109.93 L 190.15,110.06 L 191.3,109.45 L 192.44,109.93 L 193.59,109.31 L 194.74,109.89 L 202.95,109.57 L 210.01,110.28 L 210.01,110.37 L 211.44,109.05 L 212.87,108.67 L 214.3,111.08 L 215.72,110.09 L 217.15,113.63 L 218.58,107.61 L 220.01,111.28 L 221.44,109.8 L 222.86,110.42 L 224.29,69.43 L 225.72,92.43 L 227.15,110.17 L 228.58,103.36 L 230,99.32 L 231.43,97.42 L 232.86,96.42 L 234.29,95.95 L 235.72,98.27 L 237.15,104.14 L 238.57,107.96 L 240,110.41 L 241.43,110.06 L 242.86,109.47 L 244.29,109.55 L 245.71,109.34 L 247.14,109.91 L 248.57,110.48 L 250,110.05 L 251.43,110.62 L 252.85,109.58 L 254.28,110.41 L 255.71,110.23 L 257.14,109.83 L 258.57,110.27 L 259.99,109.62 L 261.42,109.63 L 262.85,110.33 L 264.28,110.07 L 265.71,109.64 L 267.14,109.64 L 277.35,109.82 L 286.13,110.15 L 286.13,108.64 L 287.06,111.48 L 287.99,109.17 L 288.92,109.93 L 289.85,113.26 L 290.78,109.77 L 291.72,106.8 L 292.65,108.04 L 293.58,110.41 L 294.51,109.46 L 295.44,69.22 L 296.37,92.71 L 297.3,110.23 L 298.23,102.91 L 299.16,99.53 L 300.1,97.54 L 301.03,96.35 L 301.96,95.91 L 302.89,97.64 L 303.82,104.17 L 304.75,108.87 L 305.68,109.82 L 306.61,109.47 L 307.54,110.29 L 308.48,109.86 L 309.41,110.04 L 310.34,110.48 L 311.27,110.01 L 312.2,110.34 L 313.13,110.56 L 314.06,110.35 L 314.99,109.63 L 315.93,109.8 L 316.86,109.48 L 317.79,110.08 L 318.72,109.61 L 319.65,109.98 L 320.58,110.54 L 321.51,109.64 L 322.44,109.84 L 323.37,109.51 L 330.03,109.9 L 335.76,110.2 L 335.76,108.26 L 336.78,110.86 L 337.79,111.26 L 338.81,112.7 L 339.83,111.37 L 340.84,108.24 L 341.86,112.92 L 342.88,107.57 L 343.9,111.91 L 344.91,110.53 L 345.93,68.55 L 346.95,93.31 L 347.97,110.69 L 348.98,103.08 L 350,99.79 L 351.02,97.96 L 352.04,96.25 L 353.05,94.95 L 354.07,97.87 L 355.09,104.5 L 356.1,108.03 L 357.12,110.37 L 358.14,109.77 L 359.16,109.61 L 360.17,110.1 L 361.19,110.34 L 362.21,109.96 L 363.23,110.68 L 364.24,109.85 L 365.26,110.41 L 366.28,109.4 L 367.3,109.71 L 368.31,110.27 L 369.33,110.48 L 370.35,109.85 L 371.37,110.41 L 372.38,110.07 L 373.4,110.53 L 374.42,109.5 L 375.43,109.45 L 376.45,109.94 L 383.73,109.73 L 389.98,109.77 L 389.98,111.76 L 390.99,109.17 L 391.99,110.22 L 393,111.11 L 394,111.1 L 395,109.08 L 396.01,106.83 L 397.01,108.28 L 398.02,108.02 L 399.02,109.6 L 400.03,68.76 L 401.03,93.14 L 402.04,109.67 L 403.04,102.35 L 404.04,100.23 L 405.05,97.57 L 406.05,95.78 L 407.06,95.41 L 408.06,98.79 L 409.07,103.89 L 410.07,108.07 L 411.08,109.64 L 412.08,109.29 L 413.08,110.06 L 414.09,110.34 L 415.09,110.01 L 416.1,109.54 L 417.1,110.17 L 418.11,110.23 L 419.11,109.83 L 420.12,109.35 L 421.12,109.8 L 422.13,110.03 L 423.13,109.88 L 424.13,110.29 L 425.14,110.32 L 426.14,109.45 L 427.15,109.79 L 428.15,109.63 L 429.16,109.78 L 430.16,109.55 L 437.34,110.08 L 443.52,109.74 L 443.52,107.09 L 444.81,112.3 L 446.1,108.97 L 447.39,107.31 L 448.69,109.69 L 449.98,113.82 L 451.27,108.39 L 452.56,110.91 L 453.85,112.35 L 455.14,110.2 L 456.43,69.6 L 457.72,93.17 L 459.02,110.42 L 460.31,102.57 L 461.6,99.4 L 462.89,97.84 L 464.18,96.37 L 465.47,95.34 L 466.76,98.12 L 468.06,104.07 L 469.35,107.95 L 470.64,110.26 L 471.93,109.39 L 473.22,110.41 L 474.51,110.63 L 475.8,110.16 L 477.1,110.51 L 478.39,109.6 L 479.68,110.17 L 480.97,110.14 L 482.26,109.57 L 483.55,110 L 484.84,109.74 L 486.13,110.57 L 487.43,110.14 L 488.72,109.46 L 490.01,110.37 L 491.3,110.24 L 492.59,109.45 L 493.88,110.56 L 495.17,110.57 L 504.41,109.71 L 512.35,110.08 L 512.35,109.59 L 513.94,109.88 L 515.53,108.07 L 517.12,107.49 L 518.71,108.81 L 520.31,107.69 L 521.9,110.65 L 523.49,112.09 L 525.08,112.31 L 526.67,110.49 L 528.26,68.53 L 529.85,92.55 L 531.45,110 L 533.04,102.86 L 534.63,99.78 L 536.22,98.18 L 537.81,96.44 L 539.4,95.93 L 540.99,98.07 L 542.58,103.75 L 544.18,109.2 L 545.77,109.77 L 547.36,110.29 L 548.95,109.95 L 550.54,110.3 L 552.13,110.47 L 553.72,109.95 L 555,110"/>
  

  <line class="divider" x1="570" y1="10" x2="570" y2="210"/>

  <text class="heart" x="585" y="33">&#x2665;</text>
  <text class="bpm" x="605" y="33">88</text>
  <text class="bpm-unit" x="638" y="33">bpm</text>

  <text class="label" x="585" y="62">ci pass rate</text>
  <text class="val-ci" x="780" y="62" text-anchor="end">20%</text>

  <text class="label" x="585" y="88">pr merge time</text>
  <text class="val-pr" x="757" y="88" text-anchor="end">15</text>
  <text class="val-unit" x="762" y="88">days</text>

  <text class="label" x="585" y="114">releases</text>
  <text class="val-rel" x="757" y="114" text-anchor="end">0.31</text>
  <text class="val-unit" x="762" y="114">/wk</text>

  <text class="label" x="585" y="140">response time</text>
  <text class="val-resp" x="757" y="140" text-anchor="end">10.9</text>
  <text class="val-unit" x="762" y="140">hrs</text>

  <rect class="bar-bg" x="585" y="158" width="195" height="8"/>
  <rect class="bar-fill" x="585" y="158" width="105" height="8"/>

  <circle class="status-dot" cx="593" cy="183" r="3.5"/>
  <text class="status-text" x="603" y="187">STRESSED</text>
  <text class="val" x="757" y="187" text-anchor="end">54</text>
  <text class="val-unit" x="762" y="187">/100</text>

  <text class="repo-name" x="20" y="205">
    <tspan fill="#64748b">adobe/</tspan>react-spectrum
  </text>
  
</svg>