<svg xmlns="http://www.w3.org/2000/svg" width="480" height="80" viewBox="0 0 480 80">
  <defs>
    <style>
      @keyframes trace-erratic {
        0% { stroke-dashoffset: 1000; }
        100% { stroke-dashoffset: 0; }
      }
      @keyframes pulse {
        0%, 100% { opacity: 0.6; }
        50% { opacity: 1; }
      }
      @keyframes fade {
        0%, 100% { opacity: 0.4; }
        50% { opacity: 0.7; }
      }
      @keyframes blink-crit {
        0%, 100% { opacity: 1; }
        30% { opacity: 0; }
        60% { opacity: 1; }
        80% { opacity: 0; }
      }
      .bg { fill: #1a1c20; }
      .ecg {
        fill: none;
        stroke: #ef4444;
        stroke-width: 2;
        stroke-linecap: round;
        stroke-linejoin: round;
        filter: drop-shadow(0 0 3px #ef444460);
        stroke-dasharray: 1000;
        animation: trace-erratic 3.5s linear infinite;
      }
      .repo { fill: #e2e8f0; font-family: ui-monospace, 'SF Mono', Consolas, monospace; font-size: 12px; }
      .repo-dim { fill: #64748b; }
      .score { fill: #ef4444; font-family: ui-monospace, 'SF Mono', Consolas, monospace; font-size: 20px; font-weight: bold; }
      .score-unit { fill: #94a3b8; font-family: ui-monospace, 'SF Mono', Consolas, monospace; font-size: 11px; }
      .status { fill: #ef4444; font-family: system-ui, -apple-system, 'Segoe UI', sans-serif; font-size: 10px; text-transform: uppercase; letter-spacing: 1px; animation: blink-crit 0.8s ease-in-out infinite; }
      .dot { fill: #ef4444; animation: blink-crit 0.5s ease-in-out infinite; }
      .border { fill: none; stroke: #ef444425; stroke-width: 1; rx: 6; }
    </style>
  </defs>

  <rect class="bg" width="480" height="80" rx="6"/>
  <rect width="480" height="80" rx="6" fill="#ef4444" opacity="0.02"/>
  <rect class="border" x="0.5" y="0.5" width="479" height="79"/>

  <path class="ecg" d="M 15,40 L 18.322250728287546,40 L 18.322250728287546,40 L 19.049523455560273,43.57166306088495 L 19.776796182833,21.521736709124923 L 20.504068910105726,52.21927599807118 L 21.049523455560273,37.806498007499314 L 21.776796182833,40 L 23.569891783685577,40 L 24.44261905641285,37.45454545454545 L 25.751709965503757,33.63636363636363 L 27.06080087459467,37.45454545454545 L 27.93352814732194,40 L 29.547763315962914,40 L 74.14457162762486,40 L 77.2058100324686,40 L 77.2058100324686,40 L 77.93308275974134,42.7412802562121 L 78.66035548701407,19.805817231355064 L 79.3876282142868,53.17689944862523 L 80.11490094155954,40 L 81.4404783173418,40 L 82.31320559006907,37.45454545454545 L 83.62229649915999,33.63636363636363 L 84.93138740825088,37.45454545454545 L 85.80411468097816,40 L 87.64292830288683,40 L 139.97476325918348,40 L 143.47507334206134,40 L 143.47507334206134,40 L 144.20234606933406,42.93598769516649 L 144.92961879660677,20.71625582347868 L 145.6568915238795,51.87084142589258 L 146.20234606933403,36.884774544168984 L 146.92961879660675,40 L 148.5770834152119,40 L 149.44981068793916,37.45454545454545 L 150.75890159703007,33.63636363636363 L 152.067992506121,37.45454545454545 L 152.94071977884826,40 L 154.41053800991952,40 L 186.3738335851167,40 L 189.54185760003944,40 L 189.54185760003944,40 L 190.26913032731215,43.1526500817159 L 190.99640305458487,20.944760098070613 L 191.7236757818576,51.51733546701435 L 192.26913032731213,34.55953010782556 L 192.99640305458485,40 L 194.38694579706748,40 L 195.25967306979476,37.45454545454545 L 196.56876397888567,33.63636363636363 L 197.87785488797658,37.45454545454545 L 198.75058216070386,40 L 200.29446376811364,40 L 259.6123047723973,40 L 263.04514696724175,40 L 263.04514696724175,40 L 263.7724196945145,43.67966159642473 L 264.49969242178724,21.168981232837755 L 265.22696514906,51.972059578016115 L 265.95423787633274,40 L 267.6199400048043,40 L 268.49266727753155,37.45454545454545 L 269.80175818662246,33.63636363636363 L 271.1108490957134,37.45454545454545 L 271.98357636844065,40 L 273.33418572623594,40 L 338.15229189537087,40 L 341.3049146170096,40 L 341.3049146170096,40 L 342.03218734428236,43.74427260841048 L 342.7594600715551,21.54932651305085 L 343.48673279882786,52.17017294998805 L 344.2140055261006,40 L 345.3265145600174,40 L 346.1992418327447,37.45454545454545 L 347.5083327418356,33.63636363636363 L 348.8174236509265,37.45454545454545 L 349.6901509236538,40 L 350.9834102300604,40 L 388.4592868640047,40 L 391.80029212402377,40 L 391.80029212402377,40 L 392.5275648512965,43.878733160898435 L 393.25483757856927,19.174890353168593 L 393.982110305842,49.34974518522851 L 394.5275648512966,37.858377065716326 L 395.2548375785693,40 L 396.64548697577465,40 L 397.5182142485019,37.45454545454545 L 398.82730515759283,33.63636363636363 L 400.13639606668374,37.45454545454545 L 401.009123339411,40 L 402.24093928693134,40 L 400,40"/>

  <text class="repo" x="15" y="68">
    <tspan class="repo-dim">expressjs/</tspan>express
  </text>

  <circle class="dot" cx="410" cy="28" r="3"/>
  <text class="status" x="418" y="32">critical</text>

  <text class="score" x="410" y="58">44</text>
  <text class="score-unit" x="438" y="58">/100</text>
</svg>