<svg xmlns="http://www.w3.org/2000/svg" width="480" height="80" viewBox="0 0 480 80">
  <defs>
    <style>
      @keyframes trace {
        0% { stroke-dashoffset: 1000; }
        100% { stroke-dashoffset: 0; }
      }
      @keyframes pulse {
        0%, 100% { opacity: 0.6; }
        50% { opacity: 1; }
      }
      @keyframes fade {
        0%, 100% { opacity: 0.4; }
        50% { opacity: 0.7; }
      }
      .bg { fill: #1a1c20; }
      .ecg {
        fill: none;
        stroke: #4ade80;
        stroke-width: 2;
        stroke-linecap: round;
        stroke-linejoin: round;
        /* no filter - avoids render glitch */
        stroke-dasharray: 1000;
        animation: trace 4s linear infinite;
      }
      .repo { fill: #e2e8f0; font-family: ui-monospace, 'SF Mono', Consolas, monospace; font-size: 12px; }
      .repo-dim { fill: #64748b; }
      .score { fill: #4ade80; font-family: ui-monospace, 'SF Mono', Consolas, monospace; font-size: 20px; font-weight: bold; }
      .score-unit { fill: #94a3b8; font-family: ui-monospace, 'SF Mono', Consolas, monospace; font-size: 11px; }
      .status { fill: #4ade80; font-family: system-ui, -apple-system, 'Segoe UI', sans-serif; font-size: 10px; text-transform: uppercase; letter-spacing: 1px;  }
      .dot { fill: #4ade80; animation: pulse 1.5s ease-in-out infinite; }
      .border { fill: none; stroke: #2e3238; stroke-width: 1; rx: 6; }

      @media (prefers-color-scheme: light) {
        .bg { fill: #ffffff; }
        .repo { fill: #1e293b; }
        .repo-dim { fill: #94a3b8; }
        .score-unit { fill: #64748b; }
        .border { stroke: #e2e8f0; }
      }
    </style>
  </defs>

  <rect class="bg" width="480" height="80" rx="6"/>
  
  <rect class="border" x="0.5" y="0.5" width="479" height="79"/>

  <path class="ecg" d="M 15,40 L 15,40.53 L 16.25,40.45 L 17.5,40.02 L 18.75,38.88 L 20.01,37.45 L 21.26,37.48 L 22.51,38.21 L 23.76,39.31 L 25.01,40.09 L 26.26,36.06 L 27.51,17.79 L 28.77,37.25 L 30.02,39.73 L 31.27,39.93 L 32.52,38.86 L 33.77,36.21 L 35.02,35.26 L 36.28,34.12 L 37.53,35.98 L 38.78,39.11 L 40.03,40.31 L 41.28,40.12 L 42.53,39.7 L 43.78,39.87 L 45.04,39.89 L 46.29,40.32 L 47.54,40.57 L 48.79,40.53 L 50.04,40.57 L 51.29,39.67 L 52.54,40.23 L 53.8,40.45 L 55.05,40.08 L 56.3,39.72 L 57.55,40.51 L 58.8,39.82 L 60.05,40.06 L 61.31,39.93 L 62.56,40.59 L 63.81,39.84 L 72.57,39.98 L 80.08,39.73 L 80.08,39.87 L 81.34,40.4 L 82.61,40.23 L 83.88,39.01 L 85.15,37.94 L 86.41,38.05 L 87.68,38.72 L 88.95,39.94 L 90.21,39.7 L 91.48,36.14 L 92.75,18.07 L 94.01,36.73 L 95.28,39.77 L 96.55,39.75 L 97.82,38.82 L 99.08,36.64 L 100.35,35.35 L 101.62,34.5 L 102.88,35.83 L 104.15,38.41 L 105.42,39.72 L 106.68,39.56 L 107.95,40.37 L 109.22,40.36 L 110.48,40.32 L 111.75,39.42 L 113.02,40.38 L 114.29,39.89 L 115.55,39.8 L 116.82,40.2 L 118.09,40.35 L 119.35,39.56 L 120.62,40.57 L 121.89,40.25 L 123.15,40 L 124.42,40.41 L 125.69,40 L 126.96,39.64 L 128.22,39.84 L 129.49,39.83 L 138.36,39.96 L 145.96,40.25 L 145.96,40.22 L 147.21,39.77 L 148.47,40.11 L 149.72,39.48 L 150.97,37.56 L 152.23,37.54 L 153.48,38.71 L 154.74,39.26 L 155.99,39.95 L 157.24,35.91 L 158.5,18.21 L 159.75,36.83 L 161,39.92 L 162.26,39.97 L 163.51,37.85 L 164.76,36.96 L 166.02,35.19 L 167.27,34.7 L 168.53,36.22 L 169.78,38.61 L 171.03,39.46 L 172.29,39.51 L 173.54,40.33 L 174.79,39.98 L 176.05,40.3 L 177.3,39.57 L 178.55,39.87 L 179.81,40.19 L 181.06,40.04 L 182.32,40.16 L 183.57,40.01 L 184.82,39.93 L 186.08,40.04 L 187.33,40.38 L 188.58,39.42 L 189.84,39.64 L 191.09,39.51 L 192.34,40.47 L 193.6,40.51 L 194.85,40.42 L 203.63,39.81 L 211.15,39.9 L 211.15,40.46 L 212.41,40.31 L 213.68,39.86 L 214.94,39.36 L 216.21,38.09 L 217.48,36.93 L 218.74,38.66 L 220.01,39.06 L 221.27,40.47 L 222.54,36.38 L 223.8,18.1 L 225.07,36.94 L 226.33,40.72 L 227.6,39.78 L 228.86,38.65 L 230.13,36.79 L 231.39,34.47 L 232.66,34.58 L 233.93,36.6 L 235.19,38.66 L 236.46,39.79 L 237.72,39.46 L 238.99,40.14 L 240.25,39.79 L 241.52,39.78 L 242.78,39.45 L 244.05,40.37 L 245.31,40.2 L 246.58,40.07 L 247.85,40.3 L 249.11,39.88 L 250.38,40.26 L 251.64,39.66 L 252.91,40.21 L 254.17,39.9 L 255.44,39.5 L 256.7,40.38 L 257.97,40.57 L 259.23,40.38 L 260.5,39.5 L 269.36,40.14 L 276.95,39.95 L 276.95,39.83 L 278.19,39.94 L 279.43,39.86 L 280.67,38.92 L 281.9,37.39 L 283.14,37.41 L 284.38,37.92 L 285.62,39.22 L 286.86,40.52 L 288.1,35.59 L 289.34,17.79 L 290.57,36.36 L 291.81,40.03 L 293.05,39.43 L 294.29,38.56 L 295.53,36.17 L 296.77,35.24 L 298.01,34.2 L 299.24,36.56 L 300.48,38.78 L 301.72,40.23 L 302.96,39.61 L 304.2,39.78 L 305.44,39.71 L 306.67,40 L 307.91,40.22 L 309.15,39.45 L 310.39,40.33 L 311.63,39.96 L 312.87,40.46 L 314.11,40.24 L 315.34,39.48 L 316.58,40.56 L 317.82,39.74 L 319.06,40.54 L 320.3,39.7 L 321.54,39.63 L 322.78,39.49 L 324.01,39.68 L 325.25,39.43 L 333.92,39.93 L 341.35,40.25 L 341.35,40.44 L 342.62,40.11 L 343.88,39.77 L 345.14,39.44 L 346.4,37.56 L 347.67,37.58 L 348.93,38.42 L 350.19,39.61 L 351.45,40.3 L 352.72,35.67 L 353.98,17.83 L 355.24,36.9 L 356.5,39.78 L 357.77,39.03 L 359.03,38.5 L 360.29,36.95 L 361.55,34.46 L 362.82,34.91 L 364.08,35.92 L 365.34,38.55 L 366.6,39.18 L 367.87,40.28 L 369.13,40.59 L 370.39,40.35 L 371.65,39.93 L 372.92,40.44 L 374.18,39.98 L 375.44,40.35 L 376.7,39.87 L 377.97,40.25 L 379.23,39.56 L 380.49,39.83 L 381.75,39.77 L 383.02,39.8 L 384.28,40.28 L 385,40"/>

  <text class="repo" x="15" y="68">
    <tspan class="repo-dim">microsoft/</tspan>vscode
  </text>

  <circle class="dot" cx="410" cy="28" r="3"/>
  <text class="status" x="418" y="32">healthy</text>

  <text class="score" x="410" y="58">73</text>
  <text class="score-unit" x="438" y="58">/100</text>
</svg>